<mxfile host="app.diagrams.net" modified="2022-01-03T13:00:01.560Z" agent="5.0 (Windows NT 10.0; Win64; x64) AppleWebKit/537.36 (KHTML, like Gecko) Chrome/96.0.4664.110 Safari/537.36" etag="ySPK_-NlhuQEsnRdxWUI" version="16.1.2" type="github">
  <diagram id="NpUMrtAXCsaWanEa29Hl" name="Page-1">
    <mxGraphModel dx="1422" dy="772" grid="1" gridSize="5" guides="1" tooltips="1" connect="1" arrows="1" fold="1" page="1" pageScale="1" pageWidth="827" pageHeight="1169" background="#FFFFFF" math="0" shadow="0">
      <root>
        <mxCell id="0" />
        <mxCell id="1" parent="0" />
        <mxCell id="UUi42nveesJ6nsxAvxsP-1" value="" style="endArrow=none;html=1;rounded=0;strokeWidth=2;" edge="1" parent="1">
          <mxGeometry width="50" height="50" relative="1" as="geometry">
            <mxPoint x="320" y="41" as="sourcePoint" />
            <mxPoint x="360" y="41" as="targetPoint" />
          </mxGeometry>
        </mxCell>
        <mxCell id="UUi42nveesJ6nsxAvxsP-2" value="" style="endArrow=none;html=1;rounded=0;strokeWidth=2;" edge="1" parent="1">
          <mxGeometry width="50" height="50" relative="1" as="geometry">
            <mxPoint x="360" y="81" as="sourcePoint" />
            <mxPoint x="360" y="41" as="targetPoint" />
          </mxGeometry>
        </mxCell>
        <mxCell id="UUi42nveesJ6nsxAvxsP-3" value="" style="endArrow=none;html=1;rounded=0;strokeWidth=2;" edge="1" parent="1">
          <mxGeometry width="50" height="50" relative="1" as="geometry">
            <mxPoint x="320" y="41" as="sourcePoint" />
            <mxPoint x="360" y="81" as="targetPoint" />
          </mxGeometry>
        </mxCell>
        <mxCell id="UUi42nveesJ6nsxAvxsP-4" value="" style="endArrow=none;html=1;rounded=0;strokeWidth=2;" edge="1" parent="1">
          <mxGeometry width="50" height="50" relative="1" as="geometry">
            <mxPoint x="320" y="81" as="sourcePoint" />
            <mxPoint x="360" y="81" as="targetPoint" />
          </mxGeometry>
        </mxCell>
        <mxCell id="UUi42nveesJ6nsxAvxsP-5" value="" style="endArrow=none;html=1;rounded=0;strokeWidth=2;" edge="1" parent="1">
          <mxGeometry width="50" height="50" relative="1" as="geometry">
            <mxPoint x="320" y="81" as="sourcePoint" />
            <mxPoint x="320" y="121" as="targetPoint" />
          </mxGeometry>
        </mxCell>
        <mxCell id="UUi42nveesJ6nsxAvxsP-6" value="" style="endArrow=none;html=1;rounded=0;strokeWidth=2;" edge="1" parent="1">
          <mxGeometry width="50" height="50" relative="1" as="geometry">
            <mxPoint x="360" y="81" as="sourcePoint" />
            <mxPoint x="320" y="121" as="targetPoint" />
          </mxGeometry>
        </mxCell>
        <mxCell id="UUi42nveesJ6nsxAvxsP-8" value="" style="endArrow=none;html=1;rounded=0;strokeColor=#000000;strokeWidth=3;" edge="1" parent="1">
          <mxGeometry width="50" height="50" relative="1" as="geometry">
            <mxPoint x="410" y="585" as="sourcePoint" />
            <mxPoint x="320" y="425" as="targetPoint" />
          </mxGeometry>
        </mxCell>
        <mxCell id="UUi42nveesJ6nsxAvxsP-9" value="" style="endArrow=none;html=1;rounded=0;strokeColor=#000000;strokeWidth=3;" edge="1" parent="1">
          <mxGeometry width="50" height="50" relative="1" as="geometry">
            <mxPoint x="345" y="465" as="sourcePoint" />
            <mxPoint x="505" y="465" as="targetPoint" />
          </mxGeometry>
        </mxCell>
        <mxCell id="UUi42nveesJ6nsxAvxsP-10" value="" style="endArrow=none;html=1;rounded=0;strokeColor=#000000;strokeWidth=3;" edge="1" parent="1">
          <mxGeometry width="50" height="50" relative="1" as="geometry">
            <mxPoint x="505" y="550" as="sourcePoint" />
            <mxPoint x="505" y="465" as="targetPoint" />
          </mxGeometry>
        </mxCell>
        <mxCell id="UUi42nveesJ6nsxAvxsP-11" value="" style="endArrow=none;html=1;rounded=0;strokeColor=#000000;strokeWidth=3;" edge="1" parent="1">
          <mxGeometry width="50" height="50" relative="1" as="geometry">
            <mxPoint x="390" y="550" as="sourcePoint" />
            <mxPoint x="505" y="550" as="targetPoint" />
          </mxGeometry>
        </mxCell>
        <mxCell id="UUi42nveesJ6nsxAvxsP-12" value="" style="rounded=0;whiteSpace=wrap;html=1;strokeWidth=2;" vertex="1" parent="1">
          <mxGeometry x="490" y="465" width="15" height="15" as="geometry" />
        </mxCell>
        <mxCell id="UUi42nveesJ6nsxAvxsP-13" value="" style="rounded=0;whiteSpace=wrap;html=1;strokeWidth=2;" vertex="1" parent="1">
          <mxGeometry x="280" y="600" width="100" height="100" as="geometry" />
        </mxCell>
        <mxCell id="UUi42nveesJ6nsxAvxsP-14" value="" style="rounded=0;whiteSpace=wrap;html=1;strokeWidth=2;" vertex="1" parent="1">
          <mxGeometry x="380" y="640" width="60" height="60" as="geometry" />
        </mxCell>
        <mxCell id="UUi42nveesJ6nsxAvxsP-15" value="" style="endArrow=none;html=1;rounded=0;strokeColor=#000000;strokeWidth=2;entryX=1;entryY=0;entryDx=0;entryDy=0;exitX=0;exitY=1;exitDx=0;exitDy=0;" edge="1" parent="1" source="UUi42nveesJ6nsxAvxsP-13" target="UUi42nveesJ6nsxAvxsP-13">
          <mxGeometry width="50" height="50" relative="1" as="geometry">
            <mxPoint x="270" y="690" as="sourcePoint" />
            <mxPoint x="320" y="640" as="targetPoint" />
          </mxGeometry>
        </mxCell>
        <mxCell id="UUi42nveesJ6nsxAvxsP-16" value="" style="endArrow=none;html=1;rounded=0;strokeColor=#000000;strokeWidth=2;entryX=1;entryY=0;entryDx=0;entryDy=0;" edge="1" parent="1" target="UUi42nveesJ6nsxAvxsP-14">
          <mxGeometry width="50" height="50" relative="1" as="geometry">
            <mxPoint x="280" y="700" as="sourcePoint" />
            <mxPoint x="385" y="605" as="targetPoint" />
          </mxGeometry>
        </mxCell>
        <mxCell id="UUi42nveesJ6nsxAvxsP-17" value="" style="endArrow=none;dashed=1;html=1;rounded=0;strokeColor=#000000;strokeWidth=2;" edge="1" parent="1">
          <mxGeometry width="50" height="50" relative="1" as="geometry">
            <mxPoint x="295" y="695" as="sourcePoint" />
            <mxPoint x="305" y="675" as="targetPoint" />
          </mxGeometry>
        </mxCell>
        <mxCell id="UUi42nveesJ6nsxAvxsP-18" value="" style="endArrow=none;dashed=1;html=1;rounded=0;strokeColor=#000000;strokeWidth=2;" edge="1" parent="1">
          <mxGeometry width="50" height="50" relative="1" as="geometry">
            <mxPoint x="305" y="687.5" as="sourcePoint" />
            <mxPoint x="315" y="665" as="targetPoint" />
          </mxGeometry>
        </mxCell>
        <mxCell id="UUi42nveesJ6nsxAvxsP-20" value="" style="endArrow=none;dashed=1;html=1;rounded=0;strokeColor=#000000;strokeWidth=2;" edge="1" parent="1">
          <mxGeometry width="50" height="50" relative="1" as="geometry">
            <mxPoint x="315" y="685" as="sourcePoint" />
            <mxPoint x="325" y="655" as="targetPoint" />
          </mxGeometry>
        </mxCell>
        <mxCell id="UUi42nveesJ6nsxAvxsP-21" value="" style="endArrow=none;dashed=1;html=1;rounded=0;strokeColor=#000000;strokeWidth=2;" edge="1" parent="1">
          <mxGeometry width="50" height="50" relative="1" as="geometry">
            <mxPoint x="320" y="685" as="sourcePoint" />
            <mxPoint x="330" y="650" as="targetPoint" />
          </mxGeometry>
        </mxCell>
        <mxCell id="UUi42nveesJ6nsxAvxsP-22" value="" style="endArrow=none;dashed=1;html=1;rounded=0;strokeColor=#000000;strokeWidth=2;" edge="1" parent="1">
          <mxGeometry width="50" height="50" relative="1" as="geometry">
            <mxPoint x="330" y="680" as="sourcePoint" />
            <mxPoint x="340" y="645" as="targetPoint" />
          </mxGeometry>
        </mxCell>
        <mxCell id="UUi42nveesJ6nsxAvxsP-23" value="" style="endArrow=none;dashed=1;html=1;rounded=0;strokeColor=#000000;strokeWidth=2;" edge="1" parent="1">
          <mxGeometry width="50" height="50" relative="1" as="geometry">
            <mxPoint x="340" y="675" as="sourcePoint" />
            <mxPoint x="350" y="635" as="targetPoint" />
          </mxGeometry>
        </mxCell>
        <mxCell id="UUi42nveesJ6nsxAvxsP-24" value="" style="endArrow=none;dashed=1;html=1;rounded=0;strokeColor=#000000;strokeWidth=2;" edge="1" parent="1">
          <mxGeometry width="50" height="50" relative="1" as="geometry">
            <mxPoint x="350" y="675" as="sourcePoint" />
            <mxPoint x="360" y="625" as="targetPoint" />
          </mxGeometry>
        </mxCell>
        <mxCell id="UUi42nveesJ6nsxAvxsP-25" value="" style="endArrow=none;dashed=1;html=1;rounded=0;strokeColor=#000000;strokeWidth=2;" edge="1" parent="1">
          <mxGeometry width="50" height="50" relative="1" as="geometry">
            <mxPoint x="360" y="670" as="sourcePoint" />
            <mxPoint x="370" y="615" as="targetPoint" />
          </mxGeometry>
        </mxCell>
        <mxCell id="UUi42nveesJ6nsxAvxsP-26" value="" style="endArrow=none;dashed=1;html=1;rounded=0;strokeColor=#000000;strokeWidth=2;" edge="1" parent="1">
          <mxGeometry width="50" height="50" relative="1" as="geometry">
            <mxPoint x="365" y="670" as="sourcePoint" />
            <mxPoint x="375" y="610" as="targetPoint" />
          </mxGeometry>
        </mxCell>
        <mxCell id="UUi42nveesJ6nsxAvxsP-27" value="" style="endArrow=none;dashed=1;html=1;rounded=0;strokeColor=#000000;strokeWidth=2;entryX=0;entryY=0;entryDx=0;entryDy=0;" edge="1" parent="1" target="UUi42nveesJ6nsxAvxsP-14">
          <mxGeometry width="50" height="50" relative="1" as="geometry">
            <mxPoint x="370" y="665" as="sourcePoint" />
            <mxPoint x="360" y="680" as="targetPoint" />
          </mxGeometry>
        </mxCell>
        <mxCell id="UUi42nveesJ6nsxAvxsP-28" value="" style="endArrow=none;dashed=1;html=1;rounded=0;strokeColor=#000000;strokeWidth=2;entryX=0.25;entryY=0;entryDx=0;entryDy=0;exitX=0.017;exitY=0.383;exitDx=0;exitDy=0;exitPerimeter=0;" edge="1" parent="1" source="UUi42nveesJ6nsxAvxsP-14" target="UUi42nveesJ6nsxAvxsP-14">
          <mxGeometry width="50" height="50" relative="1" as="geometry">
            <mxPoint x="355" y="720" as="sourcePoint" />
            <mxPoint x="365" y="685" as="targetPoint" />
          </mxGeometry>
        </mxCell>
        <mxCell id="UUi42nveesJ6nsxAvxsP-29" value="" style="endArrow=none;dashed=1;html=1;rounded=0;strokeColor=#000000;strokeWidth=2;entryX=0.5;entryY=0;entryDx=0;entryDy=0;" edge="1" parent="1" target="UUi42nveesJ6nsxAvxsP-14">
          <mxGeometry width="50" height="50" relative="1" as="geometry">
            <mxPoint x="395" y="655" as="sourcePoint" />
            <mxPoint x="370" y="690" as="targetPoint" />
          </mxGeometry>
        </mxCell>
        <mxCell id="UUi42nveesJ6nsxAvxsP-30" value="" style="endArrow=none;dashed=1;html=1;rounded=0;strokeColor=#000000;strokeWidth=2;entryX=0.75;entryY=0;entryDx=0;entryDy=0;" edge="1" parent="1" target="UUi42nveesJ6nsxAvxsP-14">
          <mxGeometry width="50" height="50" relative="1" as="geometry">
            <mxPoint x="410" y="650" as="sourcePoint" />
            <mxPoint x="375" y="695" as="targetPoint" />
          </mxGeometry>
        </mxCell>
        <mxCell id="UUi42nveesJ6nsxAvxsP-31" value="" style="endArrow=none;html=1;rounded=0;strokeColor=#000000;strokeWidth=2;" edge="1" parent="1">
          <mxGeometry width="50" height="50" relative="1" as="geometry">
            <mxPoint x="30" y="280" as="sourcePoint" />
            <mxPoint x="70" y="200" as="targetPoint" />
          </mxGeometry>
        </mxCell>
        <mxCell id="UUi42nveesJ6nsxAvxsP-32" value="" style="endArrow=none;html=1;rounded=0;strokeColor=#000000;strokeWidth=2;" edge="1" parent="1">
          <mxGeometry width="50" height="50" relative="1" as="geometry">
            <mxPoint x="30" y="280" as="sourcePoint" />
            <mxPoint x="150" y="280" as="targetPoint" />
          </mxGeometry>
        </mxCell>
        <mxCell id="UUi42nveesJ6nsxAvxsP-33" value="" style="endArrow=none;html=1;rounded=0;strokeColor=#000000;strokeWidth=2;" edge="1" parent="1">
          <mxGeometry width="50" height="50" relative="1" as="geometry">
            <mxPoint x="70" y="200" as="sourcePoint" />
            <mxPoint x="150" y="280" as="targetPoint" />
          </mxGeometry>
        </mxCell>
        <mxCell id="UUi42nveesJ6nsxAvxsP-35" value="" style="endArrow=none;dashed=1;html=1;rounded=0;strokeColor=#000000;strokeWidth=2;" edge="1" parent="1">
          <mxGeometry width="50" height="50" relative="1" as="geometry">
            <mxPoint x="70" y="280" as="sourcePoint" />
            <mxPoint x="70" y="205" as="targetPoint" />
          </mxGeometry>
        </mxCell>
        <mxCell id="UUi42nveesJ6nsxAvxsP-36" value="" style="endArrow=none;dashed=1;html=1;rounded=0;strokeColor=#000000;strokeWidth=2;" edge="1" parent="1">
          <mxGeometry width="50" height="50" relative="1" as="geometry">
            <mxPoint x="30" y="280" as="sourcePoint" />
            <mxPoint x="90" y="220" as="targetPoint" />
          </mxGeometry>
        </mxCell>
        <mxCell id="UUi42nveesJ6nsxAvxsP-37" value="" style="rounded=0;whiteSpace=wrap;html=1;strokeWidth=2;rotation=45;" vertex="1" parent="1">
          <mxGeometry x="86.10000000000002" y="222.5" width="8.28" height="7.22" as="geometry" />
        </mxCell>
        <mxCell id="UUi42nveesJ6nsxAvxsP-38" value="" style="rounded=0;whiteSpace=wrap;html=1;strokeWidth=2;rotation=90;" vertex="1" parent="1">
          <mxGeometry x="71.10000000000002" y="271.5" width="8.28" height="7.22" as="geometry" />
        </mxCell>
        <mxCell id="UUi42nveesJ6nsxAvxsP-39" value="6" style="text;html=1;align=center;verticalAlign=middle;resizable=0;points=[];autosize=1;strokeColor=none;fillColor=none;" vertex="1" parent="1">
          <mxGeometry x="47" y="236" width="20" height="20" as="geometry" />
        </mxCell>
        <mxCell id="UUi42nveesJ6nsxAvxsP-42" value="5" style="text;html=1;align=center;verticalAlign=middle;resizable=0;points=[];autosize=1;strokeColor=none;fillColor=none;" vertex="1" parent="1">
          <mxGeometry x="65" y="246" width="20" height="20" as="geometry" />
        </mxCell>
        <mxCell id="UUi42nveesJ6nsxAvxsP-43" value="8" style="text;html=1;align=center;verticalAlign=middle;resizable=0;points=[];autosize=1;strokeColor=none;fillColor=none;" vertex="1" parent="1">
          <mxGeometry x="102" y="225" width="20" height="20" as="geometry" />
        </mxCell>
        <mxCell id="UUi42nveesJ6nsxAvxsP-45" value="" style="endArrow=none;html=1;rounded=0;strokeColor=#000000;strokeWidth=2;" edge="1" parent="1">
          <mxGeometry width="50" height="50" relative="1" as="geometry">
            <mxPoint x="230" y="278.72" as="sourcePoint" />
            <mxPoint x="350" y="278.72" as="targetPoint" />
          </mxGeometry>
        </mxCell>
        <mxCell id="UUi42nveesJ6nsxAvxsP-46" value="" style="endArrow=none;html=1;rounded=0;strokeColor=#000000;strokeWidth=2;" edge="1" parent="1">
          <mxGeometry width="50" height="50" relative="1" as="geometry">
            <mxPoint x="230" y="280" as="sourcePoint" />
            <mxPoint x="260" y="200" as="targetPoint" />
          </mxGeometry>
        </mxCell>
        <mxCell id="UUi42nveesJ6nsxAvxsP-47" value="" style="endArrow=none;html=1;rounded=0;strokeColor=#000000;strokeWidth=2;" edge="1" parent="1">
          <mxGeometry width="50" height="50" relative="1" as="geometry">
            <mxPoint x="260" y="200.00000000000003" as="sourcePoint" />
            <mxPoint x="380" y="200.00000000000003" as="targetPoint" />
          </mxGeometry>
        </mxCell>
        <mxCell id="UUi42nveesJ6nsxAvxsP-48" value="" style="endArrow=none;html=1;rounded=0;strokeColor=#000000;strokeWidth=2;" edge="1" parent="1">
          <mxGeometry width="50" height="50" relative="1" as="geometry">
            <mxPoint x="350" y="280" as="sourcePoint" />
            <mxPoint x="380" y="200" as="targetPoint" />
          </mxGeometry>
        </mxCell>
        <mxCell id="UUi42nveesJ6nsxAvxsP-49" value="" style="endArrow=none;dashed=1;html=1;rounded=0;strokeColor=#000000;strokeWidth=2;" edge="1" parent="1">
          <mxGeometry width="50" height="50" relative="1" as="geometry">
            <mxPoint x="351" y="277.72" as="sourcePoint" />
            <mxPoint x="246" y="242.72" as="targetPoint" />
          </mxGeometry>
        </mxCell>
        <mxCell id="UUi42nveesJ6nsxAvxsP-50" value="" style="rounded=0;whiteSpace=wrap;html=1;strokeWidth=2;rotation=15;" vertex="1" parent="1">
          <mxGeometry x="242.05" y="242.29" width="8.61" height="7.78" as="geometry" />
        </mxCell>
        <mxCell id="UUi42nveesJ6nsxAvxsP-51" value="20" style="text;html=1;align=center;verticalAlign=middle;resizable=0;points=[];autosize=1;strokeColor=none;fillColor=none;" vertex="1" parent="1">
          <mxGeometry x="280" y="278.72" width="25" height="20" as="geometry" />
        </mxCell>
        <mxCell id="UUi42nveesJ6nsxAvxsP-52" value="12" style="text;html=1;align=center;verticalAlign=middle;resizable=0;points=[];autosize=1;strokeColor=none;fillColor=none;" vertex="1" parent="1">
          <mxGeometry x="360" y="235" width="25" height="20" as="geometry" />
        </mxCell>
        <mxCell id="UUi42nveesJ6nsxAvxsP-53" value="15" style="text;html=1;align=center;verticalAlign=middle;resizable=0;points=[];autosize=1;strokeColor=none;fillColor=none;" vertex="1" parent="1">
          <mxGeometry x="289" y="243.29000000000002" width="25" height="20" as="geometry" />
        </mxCell>
        <mxCell id="UUi42nveesJ6nsxAvxsP-54" value="" style="endArrow=none;html=1;rounded=0;strokeColor=#000000;strokeWidth=2;" edge="1" parent="1">
          <mxGeometry width="50" height="50" relative="1" as="geometry">
            <mxPoint x="460" y="280" as="sourcePoint" />
            <mxPoint x="560" y="280" as="targetPoint" />
          </mxGeometry>
        </mxCell>
        <mxCell id="UUi42nveesJ6nsxAvxsP-55" value="" style="endArrow=none;html=1;rounded=0;strokeColor=#000000;strokeWidth=2;" edge="1" parent="1">
          <mxGeometry width="50" height="50" relative="1" as="geometry">
            <mxPoint x="460" y="280" as="sourcePoint" />
            <mxPoint x="460" y="220" as="targetPoint" />
          </mxGeometry>
        </mxCell>
        <mxCell id="UUi42nveesJ6nsxAvxsP-56" value="" style="endArrow=none;html=1;rounded=0;strokeColor=#000000;strokeWidth=2;" edge="1" parent="1">
          <mxGeometry width="50" height="50" relative="1" as="geometry">
            <mxPoint x="460" y="220" as="sourcePoint" />
            <mxPoint x="560" y="140" as="targetPoint" />
          </mxGeometry>
        </mxCell>
        <mxCell id="UUi42nveesJ6nsxAvxsP-57" value="" style="endArrow=none;html=1;rounded=0;strokeColor=#000000;strokeWidth=2;" edge="1" parent="1">
          <mxGeometry width="50" height="50" relative="1" as="geometry">
            <mxPoint x="560" y="280" as="sourcePoint" />
            <mxPoint x="560" y="140" as="targetPoint" />
          </mxGeometry>
        </mxCell>
        <mxCell id="UUi42nveesJ6nsxAvxsP-58" value="" style="rounded=0;whiteSpace=wrap;html=1;strokeWidth=2;" vertex="1" parent="1">
          <mxGeometry x="550" y="268" width="10" height="12" as="geometry" />
        </mxCell>
        <mxCell id="UUi42nveesJ6nsxAvxsP-59" value="10" style="text;html=1;align=center;verticalAlign=middle;resizable=0;points=[];autosize=1;strokeColor=none;fillColor=none;" vertex="1" parent="1">
          <mxGeometry x="433" y="240" width="25" height="20" as="geometry" />
        </mxCell>
        <mxCell id="UUi42nveesJ6nsxAvxsP-60" value="12" style="text;html=1;align=center;verticalAlign=middle;resizable=0;points=[];autosize=1;strokeColor=none;fillColor=none;" vertex="1" parent="1">
          <mxGeometry x="495" y="280" width="25" height="20" as="geometry" />
        </mxCell>
        <mxCell id="UUi42nveesJ6nsxAvxsP-61" value="16" style="text;html=1;align=center;verticalAlign=middle;resizable=0;points=[];autosize=1;strokeColor=none;fillColor=none;" vertex="1" parent="1">
          <mxGeometry x="485" y="165" width="25" height="20" as="geometry" />
        </mxCell>
        <mxCell id="UUi42nveesJ6nsxAvxsP-62" value="18" style="text;html=1;align=center;verticalAlign=middle;resizable=0;points=[];autosize=1;strokeColor=none;fillColor=none;" vertex="1" parent="1">
          <mxGeometry x="555" y="195" width="25" height="20" as="geometry" />
        </mxCell>
      </root>
    </mxGraphModel>
  </diagram>
</mxfile>
